<svg id="Layer_1" data-name="Layer 1" xmlns="http://www.w3.org/2000/svg" viewBox="0 0 746.49 188.32"><defs><style>.cls-1{fill:#050505;}</style></defs><title>logo</title><path class="cls-1" d="M32.12,197V45H9.79V8.91H92.13V45H69.79V197Z" transform="translate(-9.79 -8.69)"/><path class="cls-1" d="M97.6,197,115.77,8.91H179.5L197.45,197H161.76l-2.63-30.44H136.36L134.17,197Zm41.61-60.44h17.08L148,40.88h-1.76Z" transform="translate(-9.79 -8.69)"/><path class="cls-1" d="M208.84,8.91h51q20.58,0,29.89,10.07t9.31,32.85v8.32q0,26.94-19.27,32.19a23.74,23.74,0,0,1,16.64,14.23q4.81,11.18,4.82,29.57,0,30-9,45.43T259.86,197h-51Zm44.45,70.73c3.21,0,5.4-1.21,6.57-3.61s1.75-5.81,1.75-10.19V47q0-9.19-8.1-9.2h-7.88V79.64ZM264,149.93V126.5q0-8.53-2.52-12.92t-8.87-4.38h-7v54.53l3.72.22Q264,164,264,149.93Z" transform="translate(-9.79 -8.69)"/><path class="cls-1" d="M313.73,197V8.91h37.66V165h38.76v32Z" transform="translate(-9.79 -8.69)"/><path class="cls-1" d="M400.66,197V8.91H476V45.26H439V81.83h35.48V117.3H439v43.14H478.4V197Z" transform="translate(-9.79 -8.69)"/><polygon class="cls-1" points="561.9 0.22 561.67 0.22 474.96 0.22 474.96 36.35 497.29 36.35 497.29 188.32 534.96 188.32 534.96 36.35 561.67 36.35 561.9 36.35 584.01 36.35 584.01 188.32 621.67 188.32 621.67 36.35 644.01 36.35 644.01 0.22 561.9 0.22"/><path class="cls-1" d="M681.61,197,658.4,8.69h35.91l13.8,128.1L720.37,8.69h35.91L733.07,197Z" transform="translate(-9.79 -8.69)"/></svg>